<svg xmlns="http://www.w3.org/2000/svg" viewBox="-0.00041005 -0.0013423 152.5 133.3">
	<path d="M91.53 133.18h-55.9c-1.71 0-3.25 0-4.2-1.86s-.23-3.12.63-4.61q13.13-22.58 26.16-45.2a7.13 7.13 0 0 1 5.59-3.94A9.79 9.79 0 0 0 72.09 68a10.48 10.48 0 0 0-8.27-10c-4.31-.94-9.09 1.8-11 6a8.76 8.76 0 0 0 .25 8.21 5.11 5.11 0 0 1-.24 5.49c-3.58 6.16-7.13 12.35-10.7 18.52-6.25 10.91-12.56 21.78-18.76 32.62-1.65 2.9-3.56 4.72-7.27 4.42a103.37 103.37 0 0 0-11.94 0A3.9 3.9 0 0 1 .4 130.9c-.82-1.43-.25-2.64.54-4q6.4-10.73 12.65-21.54c4.6-7.92 9.15-15.86 13.72-23.79L50 42.21c2.44-4.23 4.81-8.5 7.34-12.66 2.32-3.82 4.53-3.76 6.78.11q9.75 16.73 19.44 33.48c2.44 4.15 4.76 8.36 7.24 12.47a5.49 5.49 0 0 1 .41 5.32c-1.86 4.63-.61 8.95 3.32 12 3.22 2.52 8.06 2.47 11.79-.12 3.21-2.24 4.56-6.53 3.41-10.9-.93-3.58-4.41-6.68-8.08-6.83-2.82-.12-4.46-1.38-5.83-3.8-5.54-9.79-11.27-19.48-16.91-29.23-4.28-7.4-8.52-14.83-12.78-22.25a5.12 5.12 0 0 1 .06-5.53c2.12-3.6 4.19-7.27 6.29-10.9 2.58-4.47 4.87-4.5 7.43-.06q9.9 17.16 19.78 34.32c7.86 13.57 15.78 27.11 23.64 40.68 4.29 7.4 8.53 14.83 12.78 22.25 1.95 3.42.73 5.61-3.16 5.62H79.3a5.53 5.53 0 0 1-4.63-2.18c-4.18-5-10.07-5.77-14.67-2.07a9.74 9.74 0 0 0-3.2 10.33c1.55 4.55 4.64 6.77 9.12 7a9.16 9.16 0 0 0 8.12-3.5c2-2.53 4.53-3.34 7.7-3.32q28.06.12 56.13 0a8 8 0 0 1 7.9 4.77c1.69 3.34 3.7 6.53 5.7 9.7.82 1.3 1.4 2.52.61 4a4.09 4.09 0 0 1-3.95 2.38c-18.87-.14-37.73-.11-56.6-.11z" fill="#ffc007"/>
</svg>